<svg width="26" height="18" viewBox="0 0 26 18" fill="none" xmlns="http://www.w3.org/2000/svg">
<path d="M18.2333 9.60899C19.8903 5.31031 20.1734 1.41688 18.8656 0.912765C17.5578 0.408653 15.1543 3.48476 13.4973 7.78344C11.8403 12.0821 11.5572 15.9756 12.865 16.4797C14.1728 16.9838 16.5763 13.9077 18.2333 9.60899Z" stroke="black" stroke-linecap="round" stroke-linejoin="round"/>
<path d="M18.5217 8.8256C18.6127 9.08499 18.709 9.34619 18.8104 9.60919C20.4678 13.9078 22.8709 16.9839 24.1789 16.4799C25.4869 15.976 25.203 12.0826 23.5462 7.78401C21.8894 3.48538 19.4857 0.408738 18.1777 0.912691" stroke="black" stroke-linecap="round" stroke-linejoin="round"/>
<path d="M7.73621 9.60899C9.39321 5.31031 9.6763 1.41688 8.3685 0.912765C7.0607 0.408653 4.65726 3.48476 3.00026 7.78344C1.34326 12.0821 1.06018 15.9756 2.36797 16.4797C3.67577 16.9838 6.07921 13.9077 7.73621 9.60899Z" stroke="black" stroke-linecap="round" stroke-linejoin="round"/>
<path d="M8.02428 8.82561C8.11528 9.085 8.2115 9.3462 8.31294 9.6092C9.55177 12.8223 11.2068 15.3523 12.5105 16.2147M13.2731 8.38961C13.2009 8.18875 13.1259 7.98669 13.0482 7.78342C11.3908 3.48479 8.98768 0.408747 7.67969 0.9127" stroke="black" stroke-linecap="round" stroke-linejoin="round"/>
</svg>
