<svg width="24" height="23" viewBox="0 0 24 23" fill="none" xmlns="http://www.w3.org/2000/svg">
<path d="M24 18.4208C24 19.3001 23.5139 20.9934 22.4218 21.9235C22.2034 22.0929 21.9849 21.9973 22.0809 21.7506C22.399 20.9668 23.1263 19.1538 22.7854 18.7365C22.5442 18.4196 21.5481 18.4438 20.6984 18.5164C20.3107 18.5659 19.9699 18.5889 19.7058 18.6434C19.461 18.6627 19.4118 18.4462 19.6566 18.2769C19.9756 18.0502 20.3279 17.8755 20.7008 17.7592C22.0809 17.3431 23.676 17.5935 23.9052 17.8596C23.9484 17.9104 24 18.0543 24 18.4208ZM21.6933 19.9847C21.3777 20.2299 21.0452 20.4522 20.6984 20.6499C18.1516 22.192 14.8524 23 11.9876 23C7.37536 23 3.25041 21.2861 0.120387 18.4184C-0.148449 18.1983 0.073581 17.8789 0.388023 18.0519C3.76048 20.0355 7.93464 21.2353 12.2552 21.2353C14.9748 21.2353 17.9056 20.7225 20.6984 19.6194C20.894 19.5456 21.1124 19.4453 21.3032 19.3751C21.7437 19.1755 22.1313 19.6678 21.6933 19.9847ZM14.2883 6.64383C14.2883 5.38473 14.3387 4.6433 13.9246 4.0071C13.5574 3.48338 12.9249 3.16891 12.0416 3.2185C11.0839 3.27172 10.0553 3.90429 9.79369 5.06421C9.74208 5.3303 9.58846 5.59155 9.26922 5.6484L6.34683 5.27345C6.138 5.22507 5.81995 5.06421 5.92437 4.6433C6.55205 1.31594 9.37363 0.156026 12.0428 0H12.6693C14.1335 0 16.0153 0.422118 17.2191 1.52882C18.6797 2.90282 18.5237 4.74853 18.5237 6.75389V11.5036C18.5237 12.9284 19.0973 13.5598 19.6734 14.3024C19.8294 14.5673 19.8834 14.8794 19.6206 15.0947C18.8645 15.774 18.0975 16.4409 17.3199 17.0952C17.1099 17.256 16.733 17.273 16.5878 17.1496C15.6637 16.3695 15.438 15.9365 14.8656 15.1442C13.8694 16.1977 13.0329 16.7795 12.038 17.0952C11.3384 17.2746 10.6188 17.3624 9.8969 17.3564C7.38857 17.3564 5.4023 15.7804 5.4023 12.6635C5.4023 10.1853 6.71047 8.50042 8.64273 7.70336C10.575 6.90508 13.3834 6.65108 14.2883 6.64624M13.7158 12.926C14.3399 11.8713 14.2883 11.0077 14.2883 9.07373C13.5058 9.07373 12.7209 9.12815 12.0428 9.28902C10.7886 9.6555 9.79249 10.4501 9.79249 12.1374C9.79249 13.4558 10.4742 14.3532 11.6239 14.3532C11.7824 14.3532 11.9216 14.3351 12.0416 14.2988C12.8457 14.0738 13.3474 13.6674 13.7158 12.926Z" fill="black"/>
</svg>
